<?xml version="1.0" encoding="UTF-8"?><svg id="Layer_1" xmlns="http://www.w3.org/2000/svg" xmlns:xlink="http://www.w3.org/1999/xlink" viewBox="0 0 73 71.05"><defs><style>.cls-1{clip-path:url(#clippath);}.cls-2{fill:none;}.cls-2,.cls-3,.cls-4,.cls-5{stroke-width:0px;}.cls-3{fill:#73bee3;}.cls-4{fill:#3b5866;}.cls-5{fill:#ff7a7a;}</style><clipPath id="clippath"><rect class="cls-2" width="73" height="71.05"/></clipPath></defs><g class="cls-1"><g id="Group_1"><path id="Path_2" class="cls-4" d="m69.35,3.88H3.58c-.3-.01-.52-.26-.51-.56.01-.28.23-.5.51-.51h65.77c.3-.01.54.22.56.51.01.3-.22.54-.51.56-.02,0-.03,0-.05,0"/><path id="Path_3" class="cls-3" d="m39.18,13.01h-5.35c-2.84,14.3-9.64,28.27-19.17,37.59l9.31,14.45h25.06l9.32-14.46c-9.53-9.32-16.33-23.29-19.17-37.59m-2.68,41.93c-3.28,0-5.94-2.66-5.94-5.94s2.66-5.94,5.94-5.94,5.94,2.66,5.94,5.94-2.66,5.94-5.94,5.94h0"/><rect id="Rectangle_12" class="cls-4" x="35.73" y="13.01" width="1.55" height="24.94"/><rect id="Rectangle_13" class="cls-4" x="23.97" y="65.06" width="24.84" height="6"/><path id="Path_4" class="cls-4" d="m69.35,34.39c-.28,0-.51-.22-.53-.5-1.02-15.68-13.17-28.34-28.79-30.01-.29-.04-.49-.31-.45-.61.04-.28.29-.48.57-.46,16.12,1.76,28.65,14.83,29.75,31.01.02.29-.2.55-.5.57,0,0,0,0,0,0h-.04"/><path id="Path_5" class="cls-4" d="m3.65,34.39h-.04c-.29-.02-.52-.27-.5-.57,0,0,0,0,0,0C4.24,17.65,16.76,4.61,32.86,2.82c.29-.02.55.2.57.49.02.28-.18.53-.46.57-15.61,1.69-27.75,14.34-28.79,30.01-.02.28-.25.5-.53.5"/><path id="Path_6" class="cls-5" d="m32.92,7.16h7.16V0h-7.16v7.16Z"/><path id="Path_7" class="cls-5" d="m0,7.16h7.16V0H0v7.16Z"/><path id="Path_8" class="cls-5" d="m65.84,7.16h7.16V0h-7.16v7.16Z"/><rect id="Rectangle_14" class="cls-5" x="65.84" y="33.85" width="7.16" height="7.16"/><rect id="Rectangle_15" class="cls-5" y="33.85" width="7.16" height="7.16"/></g></g></svg>