<?xml version="1.0" encoding="UTF-8"?><svg id="Layer_1" xmlns="http://www.w3.org/2000/svg" xmlns:xlink="http://www.w3.org/1999/xlink" viewBox="0 0 79.14 61.86"><defs><style>.cls-1{clip-path:url(#clippath);}.cls-2{fill:none;}.cls-2,.cls-3,.cls-4,.cls-5{stroke-width:0px;}.cls-3{fill:#3b5866;}.cls-4{fill:#ff7a7a;}.cls-5{fill:#fff;}</style><clipPath id="clippath"><rect class="cls-2" width="79.14" height="61.86"/></clipPath></defs><rect id="Rectangle_17" class="cls-3" y="10.27" width="72.27" height="51.59"/><rect id="Rectangle_18" class="cls-5" x="4.04" y="10.27" width="64.2" height="47.56"/><rect id="Rectangle_19" class="cls-4" x="4.04" y="10.27" width="64.2" height="13.75"/><g id="Group_4"><g class="cls-1"><g id="Group_3"><path id="Path_9" class="cls-3" d="m12.29,20.79h0c-2.13,0-3.86-1.73-3.86-3.86s1.73-3.86,3.86-3.86c2.13,0,3.86,1.73,3.86,3.86s-1.73,3.86-3.86,3.86h0"/><path id="Path_10" class="cls-3" d="m58.86,20.79h0c-2.13,0-3.86-1.73-3.86-3.86s1.73-3.86,3.86-3.86c2.13,0,3.86,1.73,3.86,3.86s-1.73,3.86-3.86,3.86h0"/><path id="Path_11" class="cls-3" d="m23.69,20.79h0c-2.13,0-3.86-1.73-3.86-3.86,0-2.13,1.73-3.86,3.86-3.86,2.13,0,3.86,1.73,3.86,3.86h0c0,2.13-1.73,3.86-3.86,3.86h0"/></g></g></g></svg>