<?xml version="1.0" encoding="UTF-8"?><svg id="Layer_1" xmlns="http://www.w3.org/2000/svg" viewBox="0 0 98.56 93.16"><defs><style>.cls-1{fill:none;stroke:#6f6f6f;stroke-miterlimit:10;stroke-width:6px;}.cls-2{fill:#d3ced8;stroke-width:0px;}</style></defs><path class="cls-2" d="M12.34,42.69v40.48c0,5.52,4.47,9.99,9.99,9.99h3.16c5.52,0,9.99-4.47,9.99-9.99V17.46c0-5.52-4.47-9.99-9.99-9.99h-3.16c-5.52,0-9.99,4.47-9.99,9.99v28.26"/><path class="cls-2" d="M75.43,42.69v40.48c0,5.52,4.47,9.99,9.99,9.99h3.16c5.52,0,9.99-4.47,9.99-9.99V17.46c0-5.52-4.47-9.99-9.99-9.99h-3.16c-5.52,0-9.99,4.47-9.99,9.99v28.26"/><path class="cls-1" d="M57.55,57.67h-21.44c-5.52,0-9.99-4.47-9.99-9.99V12.99c0-5.52-4.47-9.99-9.99-9.99h-3.16C7.47,3,3,7.47,3,12.99v65.72c0,5.52,4.47,9.99,9.99,9.99h3.16c5.52,0,9.99-4.47,9.99-9.99v-13.93"/><path class="cls-1" d="M35.59,34.02h21.44c5.52,0,9.99,4.47,9.99,9.99v34.7c0,5.52,4.47,9.99,9.99,9.99h3.16c5.52,0,9.99-4.47,9.99-9.99V12.99c0-5.52-4.47-9.99-9.99-9.99h-3.16c-5.52,0-9.99,4.47-9.99,9.99v13.93"/></svg>